<?xml version="1.0" encoding="utf-8"?>
<!-- Generator: Adobe Illustrator 23.0.1, SVG Export Plug-In . SVG Version: 6.00 Build 0)  -->
<svg version="1.1" id="Layer_1" xmlns="http://www.w3.org/2000/svg" xmlns:xlink="http://www.w3.org/1999/xlink" x="0px" y="0px"
	 viewBox="0 0 1288.4 310.9" style="enable-background:new 0 0 1288.4 310.9;" xml:space="preserve">
<style type="text/css">
	.st0{fill:#020203;}
	.st1{font-family:'IBMPlexSans-SemiBold';}
	.st2{font-size:264.4953px;}
	.st3{fill:#0056A4;}
</style>
<text transform="matrix(1 0 0 1 289.7773 234.7727)" class="st0 st1 st2">Nimdee</text>
<path id="XMLID_1_" class="st0" d="M211.3,107.6H172c-4.5,0-8.1-3.6-8.1-8.1V56.8c0-4.5,3.6-8.1,8.1-8.1h39.3c4.5,0,8.1,3.6,8.1,8.1
	v42.7C219.3,104,215.7,107.6,211.3,107.6z"/>
<path class="st3" d="M219.3,190.3v35.5c0,5.1-4.4,9-9.4,8.4c-55.5-6.3-96.3-26.3-125.2-59.1c-0.3-0.3-0.8-0.1-0.8,0.3v51
	c0,4.7-3.8,8.5-8.5,8.5H40.8c-3.8,0-6.9-3.1-6.9-6.9V56.4c0-0.2,0-0.3,0-0.5v-0.3c0-3.8,3.1-6.8,6.8-6.8h0.1h35.6h0
	c4.1,0,7.5,3.3,7.5,7.5V59c0,0,0,0.1,0,0.1c10.7,66,56.3,120.6,128.9,124.2C216.4,183.5,219.3,186.6,219.3,190.3z"/>
<path id="XMLID_2_" class="st0" d="M-147.9,107.6h-39.3c-4.5,0-8.1-3.6-8.1-8.1V56.8c0-4.5,3.6-8.1,8.1-8.1h39.3
	c4.5,0,8.1,3.6,8.1,8.1v42.7C-139.8,104-143.4,107.6-147.9,107.6z"/>
<path class="st3" d="M-139.8,190.3v35.5c0,5.1-4.4,9-9.4,8.4c-55.5-6.3-96.3-26.3-125.2-59.1c-0.3-0.3-0.8-0.1-0.8,0.3v51
	c0,4.7-3.8,8.5-8.5,8.5h-34.6c-3.8,0-6.9-3.1-6.9-6.9V56.4c0-0.2,0-0.3,0-0.5v-0.3c0-3.8,3.1-6.8,6.8-6.8h0.1h35.6h0
	c4.1,0,7.5,3.3,7.5,7.5V59c0,0,0,0.1,0,0.1c10.7,66,56.3,120.6,128.9,124.2C-142.7,183.5-139.8,186.6-139.8,190.3z"/>
</svg>
